<?xml version="1.0" encoding="UTF-8"?>
<svg xmlns:xodm="http://www.corel.com/coreldraw/odm/2003" xmlns="http://www.w3.org/2000/svg" xmlns:xlink="http://www.w3.org/1999/xlink" version="1.1" id="Layer_1" x="0px" y="0px" viewBox="0 0 2500 577" style="enable-background:new 0 0 2500 577;" xml:space="preserve">
<style type="text/css">
	.st0{fill:#23AF91;}
	.st1{fill-rule:evenodd;clip-rule:evenodd;fill:#23AF91;}
</style>
<g id="Layer_x0020_1">
	<g id="_2497862937456">
		<g id="页面-1">
			<g id="导航栏下拉最小宽度备份-4">
				<g id="编组-27备份-2">
					<g id="kucoin-logo">
						<g id="KUCOIN-logo-3.0">
							<path id="形状" class="st0" d="M1967.5,288.6c0-14.7,0-28.6-0.5-41.4c-0.3-12.1-1.5-24.1-3.6-36         c-1.9-10.9-5.3-21.4-10.1-31.4c-5-10.3-11.8-19.6-19.9-27.6c-11.6-11.8-25.3-21.3-40.5-27.9c-16.4-6.7-34-10-51.7-9.7         c-17.8-0.2-35.4,3.1-51.9,9.7c-15.3,6.5-29.1,15.9-40.7,27.8c-8.1,8-14.8,17.4-19.8,27.6c-4.7,10-8.1,20.5-9.9,31.4         c-2,11.9-3.2,23.9-3.4,36c-0.3,12.8-0.5,26.7-0.4,41.4c0.1,14.7,0,28.5,0.4,41.4c0.3,12.1,1.4,24.1,3.4,36         c1.9,10.9,5.2,21.4,9.9,31.4c5,10.2,11.7,19.6,19.8,27.6c11.6,11.8,25.5,21.3,40.7,27.7c16.5,6.7,34.2,10,51.9,9.8         c17.7,0.3,35.3-3.1,51.7-9.8c15.2-6.5,28.9-15.9,40.5-27.7c8.1-8,14.9-17.4,19.9-27.6c4.8-10,8.2-20.5,10.1-31.4         c2-11.9,3.2-23.9,3.5-35.9C1967.4,317,1967.6,303.2,1967.5,288.6L1967.5,288.6L1967.5,288.6z M1900.7,288.6         c0,16.3-0.2,29.9-0.8,40.7c-0.3,8.9-1.2,17.7-2.7,26.5c-1,5.8-2.8,11.5-5.3,16.9c-2.1,4.3-4.7,8.3-7.9,11.8         c-5,5.7-11.2,10.2-18.1,13.3c-7.8,3.3-16.2,5-24.7,5c-8.5,0-17-1.7-24.8-5c-7.1-3-13.4-7.5-18.6-13.3         c-3.2-3.5-5.9-7.5-7.9-11.8c-2.5-5.4-4.1-11-5-16.9c-1.4-8.8-2.3-17.6-2.7-26.5c-0.5-10.8-0.7-24.4-0.7-40.7         c0-16.3,0.2-29.9,0.7-40.8c0.4-8.9,1.2-17.7,2.7-26.5c0.9-5.8,2.6-11.5,5-16.9c2-4.3,4.7-8.3,7.9-11.8         c5.1-5.7,11.5-10.3,18.6-13.3c7.8-3.4,16.3-5.1,24.8-5c8.5-0.1,16.9,1.6,24.7,5c6.9,3,13.1,7.6,18.1,13.3         c3.2,3.5,5.9,7.5,7.9,11.8c2.5,5.4,4.3,11,5.3,16.9c1.4,8.8,2.3,17.6,2.7,26.5C1900.5,258.6,1900.7,272.2,1900.7,288.6z"></path>
							<path id="路径" class="st0" d="M2499.7,123.4c0-3.2-2.6-5.8-5.9-5.9h-55.1c-3.2,0-5.8,2.6-5.9,5.9v203.5l-134.4-207.8         c-0.9-1.4-1.7-1.6-3.7-1.6h-51.1c-3.2,0-5.8,2.6-5.9,5.9v330.3c0,3.2,2.6,5.8,5.9,5.8h55.1c3.2,0,5.8-2.6,5.8-5.8V249.6         L2439,457.8c0.9,1.4,1.7,1.6,3.7,1.6h51.1c3.2,0,5.8-2.6,5.9-5.8L2499.7,123.4L2499.7,123.4z"></path>
							<path id="路径_0" class="st0" d="M2130.4,123.4c0-3.2-2.6-5.8-5.9-5.9h-55.1c-3.2,0-5.8,2.6-5.9,5.9v330.3         c0,3.2,2.6,5.8,5.9,5.9h55.1c3.2,0,5.8-2.6,5.9-5.9V123.4L2130.4,123.4z"></path>
							<path id="路径_1" class="st0" d="M1471.4,288.6c0-16.4,0.2-30.1,0.7-41c0.3-8.9,1.2-17.7,2.7-26.5         c5.1-29.4,27.6-46.8,56.4-46.8c18.8,0.2,35.8,7.1,46.6,22.9c4.9,7.4,8.5,15.6,10.6,24.2c0.2,0.9,1,1.5,1.9,1.5h64.8         c0.9,0,1.3-0.6,1.1-1.5c-7.1-40.1-28.5-76.1-66.3-94c-18.6-8.6-38.9-12.9-59.3-12.6c-36.5,0-67.2,12.5-92.2,37.5         c-14.3,13.9-24,31.8-27.9,51.3c-3.8,19.2-5.7,47.6-5.8,85c0,37.5,1.9,65.8,5.8,85c3.9,19.6,13.6,37.5,27.9,51.4         c25,25,55.7,37.4,92.2,37.4c20.5,0.3,40.7-4,59.3-12.6c37.8-17.8,59.2-53.9,66.3-94c0.2-0.9-0.2-1.5-1.1-1.5h-64.8         c-0.9-0.1-1.8,0.5-1.9,1.5c-2.1,8.6-5.7,16.8-10.6,24.1c-10.9,15.9-27.9,22.8-46.6,22.9c-28.8,0-51.3-17.3-56.4-46.8         c-1.4-8.8-2.3-17.6-2.7-26.5C1471.6,318.6,1471.4,304.9,1471.4,288.6L1471.4,288.6z"></path>
							<path id="路径_2" class="st0" d="M786.9,123.4c0-3.2-2.6-5.8-5.9-5.9H726c-3.2,0-5.8,2.6-5.9,5.9v330.3         c0,3.2,2.6,5.8,5.9,5.8h55.1c3.2,0,5.8-2.6,5.9-5.8v-97l44.2-52.8l90.7,153.9c0.7,1.1,2,1.8,3.3,1.8h66.9         c3.1,0,3.6-1.9,2.1-4.5L875.3,253.6l109-130.8c2.2-2.7,1.3-5.2-2.2-5.2H909c-0.9-0.1-1.7,0.3-2.3,1.1L786.9,262.4V123.4         L786.9,123.4z"></path>
							<path id="路径_3" class="st0" d="M1188,402.8c-31,0-59.1-28.7-59.1-62.9V123.4c0-3.2-2.6-5.8-5.9-5.9h-55         c-3.2,0-5.8,2.6-5.9,5.9v215.7c0,75.4,56.4,123.3,125.8,123.3c69.4,0,125.8-47.9,125.8-123.3V123.4c0-3.2-2.6-5.8-5.9-5.9         h-55.1c-3.2,0-5.8,2.6-5.8,5.9v216.5C1247.1,374.1,1218.9,402.8,1188,402.8L1188,402.8z"></path>
							<path id="形状_4" class="st1" d="M166.8,288.6l170.9,170.9l107.9-107.9c19.3-17.4,48.8-16.6,67.1,1.8s19.1,47.9,1.8,67.2         L372.2,562.9c-19.1,18.8-49.8,18.8-68.9,0L97.9,357.5v122.1c0,26.9-21.8,48.8-48.8,48.8c-26.9,0-48.8-21.8-48.8-48.8V97.4         c0-26.9,21.8-48.8,48.8-48.8c27,0,48.8,21.8,48.8,48.8v122.1L303.2,14.1c19.1-18.8,49.8-18.8,68.9,0l142.5,142.4         c17.4,19.3,16.6,48.8-1.8,67.2c-18.4,18.4-47.9,19.1-67.1,1.8L337.8,117.5L166.8,288.6L166.8,288.6z M337.8,239.7         L337.8,239.7c-19.8,0-37.6,11.9-45.1,30.1c-7.6,18.3-3.4,39.3,10.6,53.2c14,14,35,18.2,53.2,10.6         c18.3-7.6,30.2-25.4,30.2-45.1c0-13-5.1-25.4-14.3-34.5C363.2,244.8,350.8,239.7,337.8,239.7L337.8,239.7z"></path>
						</g>
					</g>
				</g>
			</g>
		</g>
	</g>
</g>
</svg>
